<?xml version="1.0" standalone="no"?>
<!DOCTYPE svg PUBLIC "-//W3C//DTD SVG 20010904//EN"
 "http://www.w3.org/TR/2001/REC-SVG-20010904/DTD/svg10.dtd">
<svg version="1.0" xmlns="http://www.w3.org/2000/svg"
 width="1092.000000pt" height="796.000000pt" viewBox="0 0 1092.000000 796.000000"
 preserveAspectRatio="xMidYMid meet">

<g transform="translate(0.000000,796.000000) scale(0.100000,-0.100000)"
fill="#000000" stroke="none">
<path d="M3720 5874 l0 -985 33 3 32 3 3 983 2 982 -35 0 -35 0 0 -986z"/>
<path d="M4902 5387 l-703 -703 26 -24 26 -24 702 702 702 702 -25 25 -25 25
-703 -703z"/>
<path d="M1890 5985 l-24 -26 684 -684 685 -685 25 25 25 25 -686 685 -685
686 -24 -26z"/>
<path d="M1282 4083 l3 -38 950 0 950 0 3 38 3 37 -956 0 -956 0 3 -37z"/>
<path d="M4810 4076 c-217 -50 -366 -153 -444 -304 -55 -108 -71 -299 -36
-436 27 -106 62 -167 150 -260 97 -102 126 -121 369 -244 220 -111 278 -148
341 -219 78 -89 94 -243 34 -339 -31 -51 -104 -104 -174 -125 -64 -20 -219
-23 -288 -5 -77 20 -190 71 -267 121 -47 30 -60 34 -70 23 -7 -7 -44 -71 -83
-141 l-70 -128 24 -22 c40 -37 152 -93 252 -127 321 -107 655 -67 864 103 74
61 144 168 174 265 19 62 24 99 24 192 0 131 -12 181 -67 279 -72 131 -215
249 -447 370 -269 140 -374 218 -422 316 -24 50 -26 63 -22 143 5 117 33 161
132 212 61 31 78 35 164 38 141 6 264 -32 371 -112 19 -14 38 -26 42 -26 7 0
159 253 159 264 0 3 -28 24 -61 47 -64 43 -148 81 -234 106 -69 20 -343 26
-415 9z"/>
<path d="M5850 2950 l0 -1120 170 0 170 0 2 518 3 517 390 0 390 0 3 -517 2
-518 169 0 c145 0 170 2 175 16 8 20 8 2188 0 2208 -5 14 -30 16 -175 16
l-169 0 0 -460 0 -460 -395 0 -395 0 0 460 0 460 -170 0 -170 0 0 -1120z"/>
<path d="M7640 2950 l0 -1120 350 0 c261 0 377 4 460 15 337 47 592 197 753
442 107 162 165 342 187 583 19 198 -14 430 -84 600 -103 251 -305 432 -591
528 -178 60 -298 72 -717 72 l-358 0 0 -1120z m804 805 c298 -52 489 -229 560
-520 40 -162 45 -264 20 -426 -41 -279 -166 -479 -361 -582 -150 -79 -245 -97
-500 -97 l-183 0 0 820 0 820 189 0 c123 0 218 -5 275 -15z"/>
<path d="M2692 2987 l-683 -683 26 -24 26 -24 684 684 684 684 -21 23 c-12 13
-24 23 -27 23 -3 0 -313 -307 -689 -683z"/>
</g>
</svg>
